<?xml version="1.0" standalone="no"?>
<!DOCTYPE svg PUBLIC "-//W3C//DTD SVG 20010904//EN"
 "http://www.w3.org/TR/2001/REC-SVG-20010904/DTD/svg10.dtd">
<svg version="1.0" xmlns="http://www.w3.org/2000/svg"
 width="700.000000pt" height="700.000000pt" viewBox="0 0 700.000000 700.000000"
 preserveAspectRatio="xMidYMid meet">
<metadata>
Created by potrace 1.14, written by Peter Selinger 2001-2017
</metadata>
<g transform="translate(0.000000,700.000000) scale(0.100000,-0.100000)"
fill="#000000" stroke="none">
<path d="M3155 6375 c-38 -7 -83 -18 -100 -23 -27 -9 -234 -94 -310 -127 -16
-7 -82 -34 -145 -60 -293 -120 -818 -338 -845 -350 -16 -8 -147 -62 -290 -120
-143 -59 -276 -114 -295 -122 -19 -8 -44 -19 -55 -24 -11 -4 -76 -31 -145 -60
-169 -69 -221 -100 -300 -179 -113 -115 -180 -276 -180 -435 -1 -84 1 -93 20
-165 10 -36 242 -607 294 -724 8 -17 40 -94 71 -171 54 -132 142 -343 170
-410 18 -42 250 -602 290 -700 73 -179 158 -382 176 -422 10 -24 19 -45 19
-48 0 -3 9 -24 19 -48 20 -45 44 -102 166 -397 42 -102 82 -198 89 -215 8 -16
39 -93 71 -170 135 -329 156 -370 237 -455 86 -91 212 -159 339 -182 129 -25
255 -6 391 56 50 23 397 166 403 166 2 0 34 14 70 30 36 17 68 30 71 30 3 0
20 6 37 14 18 8 122 52 232 97 110 44 224 92 253 105 29 13 55 24 58 24 3 0
20 6 37 14 18 8 100 42 182 76 83 33 159 65 170 69 11 5 36 16 55 24 19 8 76
32 125 52 50 20 104 43 122 51 17 8 34 14 37 14 3 0 29 11 58 23 29 13 100 43
156 67 203 84 312 194 388 392 25 65 28 85 29 193 0 179 21 115 -275 820 -51
121 -103 245 -115 275 -12 30 -52 125 -88 210 -35 85 -106 254 -157 375 -51
121 -207 495 -347 830 -141 336 -272 651 -293 700 -142 342 -240 574 -252 595
-118 221 -398 354 -643 305z"/>
<path d="M4220 6379 c0 -6 17 -51 39 -102 44 -106 162 -390 286 -692 48 -115
93 -223 100 -240 11 -27 57 -137 167 -405 21 -52 43 -104 48 -115 5 -11 24
-58 44 -105 19 -47 57 -139 84 -205 28 -66 71 -172 97 -235 25 -63 55 -134 66
-157 10 -24 19 -45 19 -48 0 -2 11 -28 23 -57 13 -29 30 -68 37 -85 14 -36 23
-39 63 -20 32 14 31 10 9 73 -16 46 -17 115 -17 909 l0 860 22 3 c21 3 22 7
17 60 -12 149 -70 268 -186 385 -47 48 -94 87 -102 87 -9 0 -16 4 -16 9 0 5
-8 11 -17 14 -10 3 -45 17 -78 31 -33 13 -73 28 -90 32 -48 11 -615 13 -615 3z"/>
<path d="M5826 4613 c1 -1308 2 -1347 20 -1354 40 -16 72 -10 79 14 6 20 22
60 45 112 5 11 55 130 110 265 56 135 107 259 114 275 8 17 51 120 96 230 44
110 87 214 95 230 7 17 27 64 43 105 17 41 50 122 74 180 45 106 60 141 63
150 1 3 6 16 12 30 71 167 84 219 87 328 6 214 -100 417 -280 537 -35 24 -539
245 -558 245 0 0 0 -606 0 -1347z"/>
</g>
</svg>
